<svg width="1440" height="561" viewBox="0 0 1440 561" fill="none" xmlns="http://www.w3.org/2000/svg">
<g clip-path="url(#clip0_665_323)">
<rect width="1440" height="561" fill="white"/>
<g opacity="0.7">
<path fill-rule="evenodd" clip-rule="evenodd" d="M971.416 758.549C956.918 712.393 979.061 591.172 998.66 539.013C1016.87 490.541 1028.26 469.471 1072.34 430.821C1114.62 393.75 1196.67 364.724 1248.35 340.79C1314.59 310.117 1387.17 227.627 1442.85 250.102C1500.13 273.222 1464.55 358.888 1473.03 416.261C1478.66 454.399 1486.39 489.42 1484.12 529.479C1481.28 579.324 1502.11 635.505 1458.18 677.632C1414.3 719.701 1343.87 696.707 1286.39 719.064C1215.65 746.582 1155.06 828.989 1087.5 821.821C1022.07 814.879 988.191 811.951 971.416 758.549Z" fill="url(#paint0_linear_665_323)" fill-opacity="0.3"/>
<path fill-rule="evenodd" clip-rule="evenodd" d="M1078.04 720.17C1058.26 682.995 1049.42 640.489 1059.5 594.567C1068.88 551.89 1097.94 511.462 1132.06 474.219C1164.79 438.498 1207.19 432.513 1250.31 406.8C1305.55 373.847 1364.47 290.894 1417.93 303.711C1472.93 316.895 1453.31 392.685 1469.29 439.933C1479.92 471.34 1491.97 499.903 1495.74 533.783C1500.44 575.939 1527.38 620.844 1493.89 660.989C1460.46 701.079 1393.62 689.432 1345.06 714.451C1285.29 745.246 1242.64 821.021 1180.69 822.348C1120.7 823.632 1100.92 763.181 1078.04 720.17Z" fill="url(#paint1_linear_665_323)" fill-opacity="0.4"/>
<path opacity="0.5" fill-rule="evenodd" clip-rule="evenodd" d="M1160.62 665.154C1154.82 624.037 1160.01 580.123 1182.48 537.097C1203.36 497.112 1240.46 463.772 1280.94 434.712C1319.77 406.84 1363.12 390.981 1407.86 375.315C1465.19 355.239 1535.55 306.166 1577.58 330.832C1620.82 356.205 1581.19 426.549 1580.7 476.745C1580.37 510.112 1582.13 540.996 1575.18 575.261C1566.53 617.897 1576.15 668.247 1535.34 700.313C1494.59 732.336 1440.73 705.815 1391.52 719.57C1330.96 736.5 1271.57 801.647 1218 789.024C1166.13 776.798 1167.33 712.724 1160.62 665.154Z" fill="url(#paint2_linear_665_323)" fill-opacity="0.6"/>
</g>
<g opacity="0.8">
<path fill-rule="evenodd" clip-rule="evenodd" d="M76.21 82.9573C123.75 91.9317 220.214 168.611 256.972 210.486C291.132 249.4 304.345 269.374 317.648 326.47C330.408 381.234 317.321 467.279 314.062 524.141C309.886 597.012 348.414 699.911 302.342 738.419C254.948 778.032 196.17 706.274 141.579 686.699C105.289 673.687 70.7602 663.993 36.5056 643.099C-6.11628 617.102 -65.4808 608.982 -81.9188 550.374C-98.3333 491.848 -44.8493 440.576 -37.468 379.347C-28.3839 303.987 -72.4886 211.697 -34.3162 155.497C2.65309 101.07 21.2074 72.5743 76.21 82.9573Z" fill="url(#paint3_linear_665_323)" fill-opacity="0.3"/>
<path fill-rule="evenodd" clip-rule="evenodd" d="M59.7868 195.082C101.896 195.166 143.55 207.407 179.294 237.953C212.511 266.339 234.462 311.03 251.219 358.678C267.293 404.379 252.576 444.601 254.927 494.743C257.94 559.002 303.318 650.069 266.811 691.173C229.255 733.457 171.664 680.427 122.464 672.245C89.7581 666.804 58.8837 663.972 27.2277 651.325C-12.1613 635.587 -64.4638 638.176 -84.0815 589.721C-103.672 541.333 -61.8904 487.883 -61.059 433.259C-60.0361 366.028 -106.754 292.693 -78.7201 237.439C-51.57 183.929 11.0672 194.985 59.7868 195.082Z" fill="url(#paint4_linear_665_323)" fill-opacity="0.4"/>
<path opacity="0.4" fill-rule="evenodd" clip-rule="evenodd" d="M69.3709 293.849C108.365 308.12 144.644 333.402 171.997 373.5C197.416 410.763 209.325 459.201 215.867 508.604C222.14 555.987 215.688 601.694 208.414 648.531C199.09 708.553 209.194 793.74 167.626 819.178C124.865 845.346 81.5112 777.237 37.4765 753.137C8.20465 737.117 -19.8626 724.11 -46.8031 701.825C-80.325 674.095 -129.264 658.843 -138.303 607.735C-147.329 556.697 -98.5468 521.701 -87.4788 471.822C-73.8564 410.432 -103.309 327.342 -66.9226 286.054C-31.6836 246.07 24.2571 277.336 69.3709 293.849Z" fill="url(#paint5_linear_665_323)" fill-opacity="0.6"/>
</g>
</g>
<defs>
<linearGradient id="paint0_linear_665_323" x1="1524.32" y1="575.108" x2="1027.63" y2="562.783" gradientUnits="userSpaceOnUse">
<stop stop-color="#9EE6F7" stop-opacity="0"/>
<stop offset="1" stop-color="#9EE6F7" stop-opacity="0.46"/>
</linearGradient>
<linearGradient id="paint1_linear_665_323" x1="1540.16" y1="578.652" x2="1093.77" y2="643.831" gradientUnits="userSpaceOnUse">
<stop stop-color="#9EE6F7" stop-opacity="0"/>
<stop offset="1" stop-color="#9EE6F7" stop-opacity="0.46"/>
</linearGradient>
<linearGradient id="paint2_linear_665_323" x1="1599.81" y1="629.507" x2="1202.62" y2="561.16" gradientUnits="userSpaceOnUse">
<stop stop-color="#005AE2"/>
<stop offset="1" stop-color="#73E6FF" stop-opacity="0.38"/>
</linearGradient>
<linearGradient id="paint3_linear_665_323" x1="-22.6874" y1="657.04" x2="222.351" y2="224.828" gradientUnits="userSpaceOnUse">
<stop stop-color="#9EE6F7" stop-opacity="0"/>
<stop offset="1" stop-color="#9EE6F7" stop-opacity="0.46"/>
</linearGradient>
<linearGradient id="paint4_linear_665_323" x1="-33.2833" y1="669.343" x2="119.695" y2="244.941" gradientUnits="userSpaceOnUse">
<stop stop-color="#9EE6F7" stop-opacity="0"/>
<stop offset="1" stop-color="#9EE6F7" stop-opacity="0.46"/>
</linearGradient>
<linearGradient id="paint5_linear_665_323" x1="-106.256" y1="697.973" x2="141.281" y2="379.916" gradientUnits="userSpaceOnUse">
<stop stop-color="#005AE2"/>
<stop offset="1" stop-color="#73E6FF" stop-opacity="0.38"/>
</linearGradient>
<clipPath id="clip0_665_323">
<rect width="1440" height="561" fill="white"/>
</clipPath>
</defs>
</svg>
