<svg width="1440" height="417" viewBox="0 0 1440 417" fill="none" xmlns="http://www.w3.org/2000/svg">
<path d="M201.516 333.707C217.021 327.298 233.634 324 250.411 324H1186.9C1203.48 324 1219.89 327.22 1235.24 333.48L1440 417H0L201.516 333.707Z" fill="#F8F7F7"/>
<g filter="url(#filter0_d_629_764)">
<ellipse cx="734" cy="368.5" rx="478" ry="24.5" fill="url(#paint0_linear_629_764)" fill-opacity="0.7" shape-rendering="crispEdges"/>
</g>
<path d="M524.677 51.1107C573.228 -53.1745 612.407 69.5845 636.623 117.021C671.043 184.448 756.301 244.6 553.971 265.011C351.642 285.422 463.989 181.467 524.677 51.1107Z" fill="#E2E9F0"/>
<g filter="url(#filter1_b_629_764)">
<rect x="434" y="24" width="768" height="224" rx="24" fill="#FEFEFE" fill-opacity="0.1"/>
<path d="M544 87.3333H554C556.188 87.3333 558.356 87.7643 560.378 88.6019C562.4 89.4395 564.237 90.6672 565.785 92.2148C567.332 93.7624 568.56 95.5998 569.398 97.6219C570.235 99.644 570.666 101.811 570.666 104C570.666 106.189 570.235 108.356 569.398 110.378C568.56 112.4 567.332 114.237 565.785 115.785C564.237 117.333 562.4 118.56 560.378 119.398C558.356 120.235 556.188 120.667 554 120.667H544M524 120.667H514C511.811 120.667 509.644 120.235 507.622 119.398C505.6 118.56 503.762 117.333 502.215 115.785C499.089 112.659 497.333 108.42 497.333 104C497.333 99.5796 499.089 95.3404 502.215 92.2148C505.34 89.0892 509.579 87.3333 514 87.3333H524" stroke="#141414" stroke-width="2" stroke-linecap="round" stroke-linejoin="round"/>
<path d="M520.667 104H547.334" stroke="#141414" stroke-width="2" stroke-linecap="round" stroke-linejoin="round"/>
<path d="M616 87.3333H626C628.188 87.3333 630.356 87.7643 632.378 88.6019C634.4 89.4395 636.237 90.6672 637.785 92.2148C639.332 93.7624 640.56 95.5998 641.398 97.6219C642.235 99.644 642.666 101.811 642.666 104C642.666 106.189 642.235 108.356 641.398 110.378C640.56 112.4 639.332 114.237 637.785 115.785C636.237 117.333 634.4 118.56 632.378 119.398C630.356 120.235 628.188 120.667 626 120.667H616M596 120.667H586C583.811 120.667 581.644 120.235 579.622 119.398C577.6 118.56 575.762 117.333 574.215 115.785C571.089 112.659 569.333 108.42 569.333 104C569.333 99.5796 571.089 95.3404 574.215 92.2148C577.34 89.0892 581.579 87.3333 586 87.3333H596" stroke="#141414" stroke-width="2" stroke-linecap="round" stroke-linejoin="round"/>
<path d="M592.667 104H619.334" stroke="#141414" stroke-width="2" stroke-linecap="round" stroke-linejoin="round"/>
<path d="M688 87.3333H698C700.188 87.3333 702.356 87.7643 704.378 88.6019C706.4 89.4395 708.237 90.6672 709.785 92.2148C711.332 93.7624 712.56 95.5998 713.398 97.6219C714.235 99.644 714.666 101.811 714.666 104C714.666 106.189 714.235 108.356 713.398 110.378C712.56 112.4 711.332 114.237 709.785 115.785C708.237 117.333 706.4 118.56 704.378 119.398C702.356 120.235 700.188 120.667 698 120.667H688M668 120.667H658C655.811 120.667 653.644 120.235 651.622 119.398C649.6 118.56 647.762 117.333 646.215 115.785C643.089 112.659 641.333 108.42 641.333 104C641.333 99.5796 643.089 95.3404 646.215 92.2148C649.34 89.0892 653.579 87.3333 658 87.3333H668" stroke="#141414" stroke-width="2" stroke-linecap="round" stroke-linejoin="round"/>
<path d="M664.667 104H691.334" stroke="#141414" stroke-width="2" stroke-linecap="round" stroke-linejoin="round"/>
<path d="M738 103C737.448 103 737 103.448 737 104C737 104.552 737.448 105 738 105V103ZM778 104L768 98.2265V109.774L778 104ZM738 105H769V103H738V105Z" fill="#005AE2"/>
<path d="M848 87.3333H858C860.188 87.3333 862.356 87.7643 864.378 88.6019C866.4 89.4395 868.237 90.6672 869.785 92.2148C871.332 93.7624 872.56 95.5998 873.398 97.6219C874.235 99.644 874.666 101.811 874.666 104C874.666 106.189 874.235 108.356 873.398 110.378C872.56 112.4 871.332 114.237 869.785 115.785C868.237 117.333 866.4 118.56 864.378 119.398C862.356 120.235 860.188 120.667 858 120.667H848M828 120.667H818C815.811 120.667 813.644 120.235 811.622 119.398C809.6 118.56 807.762 117.333 806.215 115.785C803.089 112.659 801.333 108.42 801.333 104C801.333 99.5796 803.089 95.3404 806.215 92.2148C809.34 89.0892 813.579 87.3333 818 87.3333H828" stroke="#141414" stroke-width="2" stroke-linecap="round" stroke-linejoin="round"/>
<path d="M824.667 104H851.334" stroke="#141414" stroke-width="2" stroke-linecap="round" stroke-linejoin="round"/>
<path d="M643.558 176.208C642.513 176.208 641.617 175.963 640.87 175.472C640.134 174.981 639.617 174.309 639.318 173.456L640.598 172.72C641.036 174.075 642.033 174.752 643.59 174.752C644.358 174.752 644.945 174.597 645.35 174.288C645.756 173.968 645.958 173.547 645.958 173.024C645.958 172.491 645.756 172.091 645.35 171.824C644.945 171.557 644.268 171.275 643.318 170.976C642.849 170.827 642.492 170.709 642.246 170.624C642.001 170.528 641.692 170.389 641.318 170.208C640.956 170.016 640.684 169.824 640.502 169.632C640.321 169.429 640.156 169.168 640.006 168.848C639.868 168.528 639.798 168.165 639.798 167.76C639.798 166.789 640.14 166.021 640.822 165.456C641.505 164.88 642.337 164.592 643.318 164.592C644.204 164.592 644.972 164.816 645.622 165.264C646.284 165.712 646.78 166.304 647.11 167.04L645.862 167.76C645.382 166.608 644.534 166.032 643.318 166.032C642.71 166.032 642.22 166.181 641.846 166.48C641.473 166.779 641.286 167.184 641.286 167.696C641.286 168.187 641.462 168.56 641.814 168.816C642.166 169.072 642.774 169.339 643.638 169.616C643.948 169.712 644.166 169.781 644.294 169.824C644.422 169.867 644.62 169.941 644.886 170.048C645.164 170.155 645.366 170.24 645.494 170.304C645.622 170.368 645.793 170.459 646.006 170.576C646.23 170.693 646.396 170.805 646.502 170.912C646.609 171.019 646.732 171.152 646.87 171.312C647.02 171.461 647.126 171.616 647.19 171.776C647.254 171.936 647.308 172.123 647.35 172.336C647.404 172.539 647.43 172.757 647.43 172.992C647.43 173.973 647.073 174.757 646.358 175.344C645.644 175.92 644.71 176.208 643.558 176.208ZM650.212 172.64C650.35 173.355 650.676 173.909 651.188 174.304C651.71 174.699 652.35 174.896 653.108 174.896C654.164 174.896 654.932 174.507 655.412 173.728L656.596 174.4C655.817 175.605 654.644 176.208 653.076 176.208C651.806 176.208 650.772 175.813 649.972 175.024C649.182 174.224 648.788 173.216 648.788 172C648.788 170.795 649.177 169.792 649.956 168.992C650.734 168.192 651.742 167.792 652.98 167.792C654.153 167.792 655.108 168.208 655.844 169.04C656.59 169.861 656.964 170.853 656.964 172.016C656.964 172.219 656.948 172.427 656.916 172.64H650.212ZM652.98 169.104C652.233 169.104 651.614 169.317 651.124 169.744C650.633 170.16 650.329 170.72 650.212 171.424H655.556C655.438 170.667 655.14 170.091 654.66 169.696C654.18 169.301 653.62 169.104 652.98 169.104ZM665.172 168H666.564V176H665.172V174.624C664.479 175.68 663.471 176.208 662.148 176.208C661.028 176.208 660.074 175.803 659.284 174.992C658.495 174.171 658.1 173.173 658.1 172C658.1 170.827 658.495 169.835 659.284 169.024C660.074 168.203 661.028 167.792 662.148 167.792C663.471 167.792 664.479 168.32 665.172 169.376V168ZM662.324 174.864C663.135 174.864 663.812 174.592 664.356 174.048C664.9 173.493 665.172 172.811 665.172 172C665.172 171.189 664.9 170.512 664.356 169.968C663.812 169.413 663.135 169.136 662.324 169.136C661.524 169.136 660.852 169.413 660.308 169.968C659.764 170.512 659.492 171.189 659.492 172C659.492 172.811 659.764 173.493 660.308 174.048C660.852 174.592 661.524 174.864 662.324 174.864ZM677.313 167.792C678.209 167.792 678.935 168.085 679.489 168.672C680.044 169.248 680.321 170.032 680.321 171.024V176H678.929V171.072C678.929 170.453 678.769 169.973 678.449 169.632C678.129 169.291 677.703 169.12 677.169 169.12C676.572 169.12 676.092 169.323 675.729 169.728C675.377 170.123 675.201 170.731 675.201 171.552V176H673.809V171.072C673.809 170.453 673.655 169.973 673.345 169.632C673.047 169.291 672.636 169.12 672.113 169.12C671.527 169.12 671.036 169.323 670.641 169.728C670.257 170.133 670.065 170.741 670.065 171.552V176H668.673V168H670.065V169.072C670.609 168.219 671.404 167.792 672.449 167.792C673.527 167.792 674.311 168.245 674.801 169.152C675.356 168.245 676.193 167.792 677.313 167.792ZM682.251 176V164.32H683.643V176H682.251ZM686.743 172.64C686.882 173.355 687.207 173.909 687.719 174.304C688.242 174.699 688.882 174.896 689.639 174.896C690.695 174.896 691.463 174.507 691.943 173.728L693.127 174.4C692.348 175.605 691.175 176.208 689.607 176.208C688.338 176.208 687.303 175.813 686.503 175.024C685.714 174.224 685.319 173.216 685.319 172C685.319 170.795 685.708 169.792 686.487 168.992C687.266 168.192 688.274 167.792 689.511 167.792C690.684 167.792 691.639 168.208 692.375 169.04C693.122 169.861 693.495 170.853 693.495 172.016C693.495 172.219 693.479 172.427 693.447 172.64H686.743ZM689.511 169.104C688.764 169.104 688.146 169.317 687.655 169.744C687.164 170.16 686.86 170.72 686.743 171.424H692.087C691.97 170.667 691.671 170.091 691.191 169.696C690.711 169.301 690.151 169.104 689.511 169.104ZM695.983 170.16C695.983 170.469 696.137 170.72 696.447 170.912C696.756 171.093 697.129 171.243 697.567 171.36C698.004 171.467 698.441 171.595 698.879 171.744C699.316 171.883 699.689 172.128 699.999 172.48C700.308 172.821 700.463 173.264 700.463 173.808C700.463 174.533 700.18 175.115 699.615 175.552C699.06 175.989 698.345 176.208 697.471 176.208C696.692 176.208 696.025 176.037 695.471 175.696C694.916 175.355 694.521 174.901 694.287 174.336L695.487 173.648C695.615 174.032 695.855 174.336 696.207 174.56C696.559 174.784 696.98 174.896 697.471 174.896C697.929 174.896 698.308 174.811 698.607 174.64C698.905 174.459 699.055 174.181 699.055 173.808C699.055 173.499 698.9 173.253 698.591 173.072C698.281 172.88 697.908 172.731 697.471 172.624C697.033 172.507 696.596 172.373 696.159 172.224C695.721 172.075 695.348 171.829 695.039 171.488C694.729 171.147 694.575 170.709 694.575 170.176C694.575 169.483 694.841 168.912 695.375 168.464C695.919 168.016 696.596 167.792 697.407 167.792C698.057 167.792 698.633 167.941 699.135 168.24C699.647 168.528 700.031 168.933 700.287 169.456L699.119 170.112C698.831 169.429 698.26 169.088 697.407 169.088C697.012 169.088 696.676 169.184 696.399 169.376C696.121 169.557 695.983 169.819 695.983 170.16ZM702.811 170.16C702.811 170.469 702.965 170.72 703.275 170.912C703.584 171.093 703.957 171.243 704.395 171.36C704.832 171.467 705.269 171.595 705.707 171.744C706.144 171.883 706.517 172.128 706.827 172.48C707.136 172.821 707.291 173.264 707.291 173.808C707.291 174.533 707.008 175.115 706.443 175.552C705.888 175.989 705.173 176.208 704.299 176.208C703.52 176.208 702.853 176.037 702.299 175.696C701.744 175.355 701.349 174.901 701.115 174.336L702.315 173.648C702.443 174.032 702.683 174.336 703.035 174.56C703.387 174.784 703.808 174.896 704.299 174.896C704.757 174.896 705.136 174.811 705.435 174.64C705.733 174.459 705.883 174.181 705.883 173.808C705.883 173.499 705.728 173.253 705.419 173.072C705.109 172.88 704.736 172.731 704.299 172.624C703.861 172.507 703.424 172.373 702.987 172.224C702.549 172.075 702.176 171.829 701.867 171.488C701.557 171.147 701.403 170.709 701.403 170.176C701.403 169.483 701.669 168.912 702.203 168.464C702.747 168.016 703.424 167.792 704.235 167.792C704.885 167.792 705.461 167.941 705.963 168.24C706.475 168.528 706.859 168.933 707.115 169.456L705.947 170.112C705.659 169.429 705.088 169.088 704.235 169.088C703.84 169.088 703.504 169.184 703.227 169.376C702.949 169.557 702.811 169.819 702.811 170.16ZM708.861 176V164.32H710.253V176H708.861ZM717.96 168H719.448L716.184 176.496C715.843 177.403 715.363 178.091 714.744 178.56C714.136 179.04 713.432 179.253 712.632 179.2V177.904C713.614 177.979 714.334 177.435 714.792 176.272L714.936 175.968L711.448 168H712.936L715.656 174.272L717.96 168ZM728.963 169.344H726.835V173.68C726.835 174.075 726.909 174.357 727.059 174.528C727.219 174.688 727.459 174.773 727.779 174.784C728.099 174.784 728.493 174.773 728.963 174.752V176C727.747 176.16 726.856 176.064 726.291 175.712C725.725 175.349 725.443 174.672 725.443 173.68V169.344H723.859V168H725.443V166.176L726.835 165.76V168H728.963V169.344ZM732.05 169.344C732.508 168.352 733.34 167.856 734.546 167.856V169.312C733.863 169.28 733.276 169.461 732.786 169.856C732.295 170.251 732.05 170.885 732.05 171.76V176H730.658V168H732.05V169.344ZM742.094 168H743.486V176H742.094V174.624C741.401 175.68 740.393 176.208 739.07 176.208C737.95 176.208 736.995 175.803 736.206 174.992C735.417 174.171 735.022 173.173 735.022 172C735.022 170.827 735.417 169.835 736.206 169.024C736.995 168.203 737.95 167.792 739.07 167.792C740.393 167.792 741.401 168.32 742.094 169.376V168ZM739.246 174.864C740.057 174.864 740.734 174.592 741.278 174.048C741.822 173.493 742.094 172.811 742.094 172C742.094 171.189 741.822 170.512 741.278 169.968C740.734 169.413 740.057 169.136 739.246 169.136C738.446 169.136 737.774 169.413 737.23 169.968C736.686 170.512 736.414 171.189 736.414 172C736.414 172.811 736.686 173.493 737.23 174.048C737.774 174.592 738.446 174.864 739.246 174.864ZM749.579 167.792C750.518 167.792 751.27 168.091 751.835 168.688C752.4 169.275 752.683 170.075 752.683 171.088V176H751.291V171.168C751.291 170.517 751.115 170.016 750.763 169.664C750.411 169.301 749.926 169.12 749.307 169.12C748.614 169.12 748.054 169.339 747.627 169.776C747.2 170.203 746.987 170.864 746.987 171.76V176H745.595V168H746.987V169.152C747.552 168.245 748.416 167.792 749.579 167.792ZM755.826 170.16C755.826 170.469 755.981 170.72 756.29 170.912C756.6 171.093 756.973 171.243 757.41 171.36C757.848 171.467 758.285 171.595 758.722 171.744C759.16 171.883 759.533 172.128 759.842 172.48C760.152 172.821 760.306 173.264 760.306 173.808C760.306 174.533 760.024 175.115 759.458 175.552C758.904 175.989 758.189 176.208 757.314 176.208C756.536 176.208 755.869 176.037 755.314 175.696C754.76 175.355 754.365 174.901 754.13 174.336L755.33 173.648C755.458 174.032 755.698 174.336 756.05 174.56C756.402 174.784 756.824 174.896 757.314 174.896C757.773 174.896 758.152 174.811 758.45 174.64C758.749 174.459 758.898 174.181 758.898 173.808C758.898 173.499 758.744 173.253 758.434 173.072C758.125 172.88 757.752 172.731 757.314 172.624C756.877 172.507 756.44 172.373 756.002 172.224C755.565 172.075 755.192 171.829 754.882 171.488C754.573 171.147 754.418 170.709 754.418 170.176C754.418 169.483 754.685 168.912 755.218 168.464C755.762 168.016 756.44 167.792 757.25 167.792C757.901 167.792 758.477 167.941 758.978 168.24C759.49 168.528 759.874 168.933 760.13 169.456L758.962 170.112C758.674 169.429 758.104 169.088 757.25 169.088C756.856 169.088 756.52 169.184 756.242 169.376C755.965 169.557 755.826 169.819 755.826 170.16ZM765.895 165.936C764.487 165.819 763.783 166.427 763.783 167.76V168H765.895V169.344H763.783V176H762.391V169.344H761.111V168H762.391V167.76C762.391 166.683 762.689 165.867 763.287 165.312C763.895 164.757 764.764 164.517 765.895 164.592V165.936ZM773.269 174.992C772.448 175.803 771.45 176.208 770.277 176.208C769.104 176.208 768.106 175.803 767.285 174.992C766.474 174.181 766.069 173.184 766.069 172C766.069 170.816 766.474 169.819 767.285 169.008C768.106 168.197 769.104 167.792 770.277 167.792C771.45 167.792 772.448 168.197 773.269 169.008C774.09 169.819 774.501 170.816 774.501 172C774.501 173.184 774.09 174.181 773.269 174.992ZM770.277 174.848C771.077 174.848 771.749 174.576 772.293 174.032C772.837 173.488 773.109 172.811 773.109 172C773.109 171.189 772.837 170.512 772.293 169.968C771.749 169.424 771.077 169.152 770.277 169.152C769.488 169.152 768.821 169.424 768.277 169.968C767.733 170.512 767.461 171.189 767.461 172C767.461 172.811 767.733 173.488 768.277 174.032C768.821 174.576 769.488 174.848 770.277 174.848ZM777.534 169.344C777.993 168.352 778.825 167.856 780.03 167.856V169.312C779.347 169.28 778.761 169.461 778.27 169.856C777.779 170.251 777.534 170.885 777.534 171.76V176H776.142V168H777.534V169.344ZM790.032 167.792C790.928 167.792 791.653 168.085 792.208 168.672C792.763 169.248 793.04 170.032 793.04 171.024V176H791.648V171.072C791.648 170.453 791.488 169.973 791.168 169.632C790.848 169.291 790.421 169.12 789.888 169.12C789.291 169.12 788.811 169.323 788.448 169.728C788.096 170.123 787.92 170.731 787.92 171.552V176H786.528V171.072C786.528 170.453 786.373 169.973 786.064 169.632C785.765 169.291 785.355 169.12 784.832 169.12C784.245 169.12 783.755 169.323 783.36 169.728C782.976 170.133 782.784 170.741 782.784 171.552V176H781.392V168H782.784V169.072C783.328 168.219 784.123 167.792 785.168 167.792C786.245 167.792 787.029 168.245 787.52 169.152C788.075 168.245 788.912 167.792 790.032 167.792ZM804.554 168H806.042L802.778 176.496C802.437 177.403 801.957 178.091 801.338 178.56C800.73 179.04 800.026 179.253 799.226 179.2V177.904C800.207 177.979 800.927 177.435 801.386 176.272L801.53 175.968L798.042 168H799.53L802.25 174.272L804.554 168ZM813.644 174.992C812.823 175.803 811.825 176.208 810.652 176.208C809.479 176.208 808.481 175.803 807.66 174.992C806.849 174.181 806.444 173.184 806.444 172C806.444 170.816 806.849 169.819 807.66 169.008C808.481 168.197 809.479 167.792 810.652 167.792C811.825 167.792 812.823 168.197 813.644 169.008C814.465 169.819 814.876 170.816 814.876 172C814.876 173.184 814.465 174.181 813.644 174.992ZM810.652 174.848C811.452 174.848 812.124 174.576 812.668 174.032C813.212 173.488 813.484 172.811 813.484 172C813.484 171.189 813.212 170.512 812.668 169.968C812.124 169.424 811.452 169.152 810.652 169.152C809.863 169.152 809.196 169.424 808.652 169.968C808.108 170.512 807.836 171.189 807.836 172C807.836 172.811 808.108 173.488 808.652 174.032C809.196 174.576 809.863 174.848 810.652 174.848ZM822.037 168H823.429V176H822.037V174.848C821.472 175.755 820.608 176.208 819.445 176.208C818.506 176.208 817.754 175.915 817.189 175.328C816.624 174.731 816.341 173.925 816.341 172.912V168H817.733V172.832C817.733 173.483 817.909 173.989 818.261 174.352C818.613 174.704 819.098 174.88 819.717 174.88C820.41 174.88 820.97 174.667 821.397 174.24C821.824 173.803 822.037 173.136 822.037 172.24V168ZM826.94 169.344C827.399 168.352 828.231 167.856 829.436 167.856V169.312C828.754 169.28 828.167 169.461 827.676 169.856C827.186 170.251 826.94 170.885 826.94 171.76V176H825.548V168H826.94V169.344ZM834.798 176V164.32H836.19V176H834.798ZM845.066 174.992C844.244 175.803 843.247 176.208 842.074 176.208C840.9 176.208 839.903 175.803 839.082 174.992C838.271 174.181 837.866 173.184 837.866 172C837.866 170.816 838.271 169.819 839.082 169.008C839.903 168.197 840.9 167.792 842.074 167.792C843.247 167.792 844.244 168.197 845.066 169.008C845.887 169.819 846.298 170.816 846.298 172C846.298 173.184 845.887 174.181 845.066 174.992ZM842.074 174.848C842.874 174.848 843.546 174.576 844.09 174.032C844.634 173.488 844.906 172.811 844.906 172C844.906 171.189 844.634 170.512 844.09 169.968C843.546 169.424 842.874 169.152 842.074 169.152C841.284 169.152 840.618 169.424 840.074 169.968C839.53 170.512 839.258 171.189 839.258 172C839.258 172.811 839.53 173.488 840.074 174.032C840.618 174.576 841.284 174.848 842.074 174.848ZM851.923 167.792C852.861 167.792 853.613 168.091 854.179 168.688C854.744 169.275 855.027 170.075 855.027 171.088V176H853.635V171.168C853.635 170.517 853.459 170.016 853.107 169.664C852.755 169.301 852.269 169.12 851.651 169.12C850.957 169.12 850.397 169.339 849.971 169.776C849.544 170.203 849.331 170.864 849.331 171.76V176H847.939V168H849.331V169.152C849.896 168.245 850.76 167.792 851.923 167.792ZM863.61 168H864.986V175.664C864.986 176.848 864.586 177.765 863.786 178.416C862.986 179.077 862.026 179.408 860.906 179.408C860.01 179.408 859.237 179.237 858.586 178.896C857.935 178.565 857.445 178.085 857.114 177.456L858.33 176.768C858.767 177.664 859.637 178.112 860.938 178.112C861.77 178.112 862.421 177.893 862.89 177.456C863.37 177.019 863.61 176.421 863.61 175.664V174.528C862.906 175.595 861.903 176.128 860.602 176.128C859.461 176.128 858.495 175.723 857.706 174.912C856.917 174.101 856.522 173.115 856.522 171.952C856.522 170.789 856.917 169.808 857.706 169.008C858.495 168.197 859.461 167.792 860.602 167.792C861.914 167.792 862.917 168.32 863.61 169.376V168ZM858.73 173.984C859.274 174.528 859.951 174.8 860.762 174.8C861.573 174.8 862.25 174.528 862.794 173.984C863.338 173.44 863.61 172.763 863.61 171.952C863.61 171.152 863.338 170.48 862.794 169.936C862.25 169.392 861.573 169.12 860.762 169.12C859.951 169.12 859.274 169.392 858.73 169.936C858.186 170.48 857.914 171.152 857.914 171.952C857.914 172.763 858.186 173.44 858.73 173.984ZM878.327 175.136C877.548 175.851 876.54 176.208 875.303 176.208C874.066 176.208 873.052 175.851 872.263 175.136C871.484 174.411 871.095 173.445 871.095 172.24V164.8H872.583V172.176C872.583 172.965 872.818 173.595 873.287 174.064C873.756 174.523 874.428 174.752 875.303 174.752C876.178 174.752 876.85 174.523 877.319 174.064C877.788 173.595 878.023 172.965 878.023 172.176V164.8H879.495V172.24C879.495 173.445 879.106 174.411 878.327 175.136ZM888.41 176L885.898 171.712H883.258V176H881.77V164.8H886.25C887.21 164.8 888.032 165.141 888.714 165.824C889.397 166.496 889.738 167.312 889.738 168.272C889.738 168.997 889.52 169.659 889.082 170.256C888.656 170.853 888.101 171.275 887.418 171.52L890.058 176H888.41ZM883.258 166.192V170.368H886.25C886.805 170.368 887.274 170.165 887.658 169.76C888.053 169.344 888.25 168.848 888.25 168.272C888.25 167.696 888.053 167.205 887.658 166.8C887.274 166.395 886.805 166.192 886.25 166.192H883.258ZM893.04 174.592H897.872V176H891.552V164.8H893.04V174.592ZM900.42 170.16C900.42 170.469 900.575 170.72 900.884 170.912C901.193 171.093 901.567 171.243 902.004 171.36C902.441 171.467 902.879 171.595 903.316 171.744C903.753 171.883 904.127 172.128 904.436 172.48C904.745 172.821 904.9 173.264 904.9 173.808C904.9 174.533 904.617 175.115 904.052 175.552C903.497 175.989 902.783 176.208 901.908 176.208C901.129 176.208 900.463 176.037 899.908 175.696C899.353 175.355 898.959 174.901 898.724 174.336L899.924 173.648C900.052 174.032 900.292 174.336 900.644 174.56C900.996 174.784 901.417 174.896 901.908 174.896C902.367 174.896 902.745 174.811 903.044 174.64C903.343 174.459 903.492 174.181 903.492 173.808C903.492 173.499 903.337 173.253 903.028 173.072C902.719 172.88 902.345 172.731 901.908 172.624C901.471 172.507 901.033 172.373 900.596 172.224C900.159 172.075 899.785 171.829 899.476 171.488C899.167 171.147 899.012 170.709 899.012 170.176C899.012 169.483 899.279 168.912 899.812 168.464C900.356 168.016 901.033 167.792 901.844 167.792C902.495 167.792 903.071 167.941 903.572 168.24C904.084 168.528 904.468 168.933 904.724 169.456L903.556 170.112C903.268 169.429 902.697 169.088 901.844 169.088C901.449 169.088 901.113 169.184 900.836 169.376C900.559 169.557 900.42 169.819 900.42 170.16ZM911.252 166.544C910.986 166.544 910.762 166.453 910.58 166.272C910.399 166.091 910.308 165.872 910.308 165.616C910.308 165.36 910.399 165.141 910.58 164.96C910.762 164.768 910.986 164.672 911.252 164.672C911.508 164.672 911.727 164.768 911.908 164.96C912.09 165.141 912.18 165.36 912.18 165.616C912.18 165.872 912.09 166.091 911.908 166.272C911.727 166.453 911.508 166.544 911.252 166.544ZM910.548 176V168H911.94V176H910.548ZM918.048 167.792C918.986 167.792 919.738 168.091 920.304 168.688C920.869 169.275 921.152 170.075 921.152 171.088V176H919.76V171.168C919.76 170.517 919.584 170.016 919.232 169.664C918.88 169.301 918.394 169.12 917.776 169.12C917.082 169.12 916.522 169.339 916.096 169.776C915.669 170.203 915.456 170.864 915.456 171.76V176H914.064V168H915.456V169.152C916.021 168.245 916.885 167.792 918.048 167.792ZM927.447 169.344H925.319V173.68C925.319 174.075 925.394 174.357 925.543 174.528C925.703 174.688 925.943 174.773 926.263 174.784C926.583 174.784 926.978 174.773 927.447 174.752V176C926.231 176.16 925.34 176.064 924.775 175.712C924.21 175.349 923.927 174.672 923.927 173.68V169.344H922.343V168H923.927V166.176L925.319 165.76V168H927.447V169.344ZM935.441 174.992C934.619 175.803 933.622 176.208 932.449 176.208C931.275 176.208 930.278 175.803 929.457 174.992C928.646 174.181 928.241 173.184 928.241 172C928.241 170.816 928.646 169.819 929.457 169.008C930.278 168.197 931.275 167.792 932.449 167.792C933.622 167.792 934.619 168.197 935.441 169.008C936.262 169.819 936.673 170.816 936.673 172C936.673 173.184 936.262 174.181 935.441 174.992ZM932.449 174.848C933.249 174.848 933.921 174.576 934.465 174.032C935.009 173.488 935.281 172.811 935.281 172C935.281 171.189 935.009 170.512 934.465 169.968C933.921 169.424 933.249 169.152 932.449 169.152C931.659 169.152 930.993 169.424 930.449 169.968C929.905 170.512 929.633 171.189 929.633 172C929.633 172.811 929.905 173.488 930.449 174.032C930.993 174.576 931.659 174.848 932.449 174.848ZM946.042 176.208C944.836 176.208 943.828 175.803 943.018 174.992C942.218 174.181 941.818 173.184 941.818 172C941.818 170.805 942.218 169.808 943.018 169.008C943.828 168.197 944.836 167.792 946.042 167.792C946.82 167.792 947.53 167.979 948.17 168.352C948.81 168.725 949.29 169.227 949.61 169.856L948.122 170.72C947.94 170.336 947.663 170.037 947.29 169.824C946.927 169.6 946.506 169.488 946.026 169.488C945.322 169.488 944.73 169.728 944.25 170.208C943.78 170.688 943.546 171.285 943.546 172C943.546 172.715 943.78 173.312 944.25 173.792C944.73 174.272 945.322 174.512 946.026 174.512C946.495 174.512 946.916 174.4 947.29 174.176C947.674 173.952 947.962 173.653 948.154 173.28L949.642 174.128C949.3 174.768 948.81 175.275 948.17 175.648C947.53 176.021 946.82 176.208 946.042 176.208ZM954.542 176.208C953.368 176.208 952.371 175.803 951.55 174.992C950.728 174.181 950.318 173.184 950.318 172C950.318 170.816 950.728 169.819 951.55 169.008C952.371 168.197 953.368 167.792 954.542 167.792C955.726 167.792 956.723 168.197 957.534 169.008C958.355 169.819 958.766 170.816 958.766 172C958.766 173.184 958.355 174.181 957.534 174.992C956.723 175.803 955.726 176.208 954.542 176.208ZM952.766 173.808C953.246 174.288 953.838 174.528 954.542 174.528C955.246 174.528 955.838 174.288 956.318 173.808C956.798 173.328 957.038 172.725 957.038 172C957.038 171.275 956.798 170.672 956.318 170.192C955.838 169.712 955.246 169.472 954.542 169.472C953.838 169.472 953.246 169.712 952.766 170.192C952.286 170.672 952.046 171.275 952.046 172C952.046 172.725 952.286 173.328 952.766 173.808ZM964.536 167.792C965.454 167.792 966.195 168.085 966.76 168.672C967.326 169.259 967.608 170.064 967.608 171.088V176H965.88V171.264C965.88 170.667 965.72 170.208 965.4 169.888C965.08 169.568 964.643 169.408 964.088 169.408C963.48 169.408 962.99 169.6 962.616 169.984C962.243 170.357 962.056 170.933 962.056 171.712V176H960.328V168H962.056V169.024C962.579 168.203 963.406 167.792 964.536 167.792ZM973.245 176.208C972.04 176.208 971.032 175.803 970.221 174.992C969.421 174.181 969.021 173.184 969.021 172C969.021 170.805 969.421 169.808 970.221 169.008C971.032 168.197 972.04 167.792 973.245 167.792C974.024 167.792 974.733 167.979 975.373 168.352C976.013 168.725 976.493 169.227 976.813 169.856L975.325 170.72C975.144 170.336 974.866 170.037 974.493 169.824C974.13 169.6 973.709 169.488 973.229 169.488C972.525 169.488 971.933 169.728 971.453 170.208C970.984 170.688 970.749 171.285 970.749 172C970.749 172.715 970.984 173.312 971.453 173.792C971.933 174.272 972.525 174.512 973.229 174.512C973.698 174.512 974.12 174.4 974.493 174.176C974.877 173.952 975.165 173.653 975.357 173.28L976.845 174.128C976.504 174.768 976.013 175.275 975.373 175.648C974.733 176.021 974.024 176.208 973.245 176.208ZM979.726 166.48C979.513 166.693 979.257 166.8 978.958 166.8C978.659 166.8 978.398 166.693 978.174 166.48C977.961 166.256 977.854 165.995 977.854 165.696C977.854 165.397 977.961 165.141 978.174 164.928C978.387 164.704 978.649 164.592 978.958 164.592C979.267 164.592 979.529 164.704 979.742 164.928C979.955 165.141 980.062 165.397 980.062 165.696C980.062 165.995 979.95 166.256 979.726 166.48ZM978.094 176V168H979.822V176H978.094ZM983.333 170.208C983.333 170.475 983.477 170.688 983.765 170.848C984.064 170.997 984.421 171.131 984.837 171.248C985.264 171.355 985.691 171.483 986.117 171.632C986.544 171.781 986.901 172.037 987.189 172.4C987.488 172.752 987.637 173.2 987.637 173.744C987.637 174.512 987.339 175.115 986.741 175.552C986.155 175.989 985.413 176.208 984.517 176.208C983.728 176.208 983.051 176.043 982.485 175.712C981.92 175.381 981.509 174.923 981.253 174.336L982.741 173.472C983.019 174.24 983.611 174.624 984.517 174.624C985.424 174.624 985.877 174.325 985.877 173.728C985.877 173.472 985.728 173.264 985.429 173.104C985.141 172.944 984.784 172.811 984.357 172.704C983.941 172.587 983.52 172.453 983.093 172.304C982.667 172.155 982.304 171.909 982.005 171.568C981.717 171.216 981.573 170.773 981.573 170.24C981.573 169.504 981.851 168.912 982.405 168.464C982.971 168.016 983.669 167.792 984.501 167.792C985.163 167.792 985.749 167.941 986.261 168.24C986.784 168.528 987.184 168.933 987.461 169.456L986.005 170.272C985.728 169.664 985.227 169.36 984.501 169.36C984.171 169.36 983.893 169.435 983.669 169.584C983.445 169.723 983.333 169.931 983.333 170.208ZM990.313 172.736C990.441 173.344 990.735 173.813 991.193 174.144C991.652 174.464 992.212 174.624 992.873 174.624C993.791 174.624 994.479 174.293 994.937 173.632L996.361 174.464C995.572 175.627 994.404 176.208 992.857 176.208C991.556 176.208 990.505 175.813 989.705 175.024C988.905 174.224 988.505 173.216 988.505 172C988.505 170.805 988.9 169.808 989.689 169.008C990.479 168.197 991.492 167.792 992.729 167.792C993.903 167.792 994.863 168.203 995.609 169.024C996.367 169.845 996.745 170.843 996.745 172.016C996.745 172.197 996.724 172.437 996.681 172.736H990.313ZM990.297 171.328H995.001C994.884 170.677 994.612 170.187 994.185 169.856C993.769 169.525 993.279 169.36 992.713 169.36C992.073 169.36 991.54 169.536 991.113 169.888C990.687 170.24 990.415 170.72 990.297 171.328ZM683.25 192H684.642V200H683.25V198.624C682.557 199.68 681.549 200.208 680.226 200.208C679.106 200.208 678.152 199.803 677.362 198.992C676.573 198.171 676.178 197.173 676.178 196C676.178 194.827 676.573 193.835 677.362 193.024C678.152 192.203 679.106 191.792 680.226 191.792C681.549 191.792 682.557 192.32 683.25 193.376V192ZM680.402 198.864C681.213 198.864 681.89 198.592 682.434 198.048C682.978 197.493 683.25 196.811 683.25 196C683.25 195.189 682.978 194.512 682.434 193.968C681.89 193.413 681.213 193.136 680.402 193.136C679.602 193.136 678.93 193.413 678.386 193.968C677.842 194.512 677.57 195.189 677.57 196C677.57 196.811 677.842 197.493 678.386 198.048C678.93 198.592 679.602 198.864 680.402 198.864ZM690.735 191.792C691.674 191.792 692.426 192.091 692.991 192.688C693.557 193.275 693.839 194.075 693.839 195.088V200H692.447V195.168C692.447 194.517 692.271 194.016 691.919 193.664C691.567 193.301 691.082 193.12 690.463 193.12C689.77 193.12 689.21 193.339 688.783 193.776C688.357 194.203 688.143 194.864 688.143 195.76V200H686.751V192H688.143V193.152C688.709 192.245 689.573 191.792 690.735 191.792ZM702.407 188.8H703.799V200H702.407V198.624C701.713 199.68 700.705 200.208 699.383 200.208C698.263 200.208 697.308 199.803 696.519 198.992C695.729 198.171 695.335 197.173 695.335 196C695.335 194.827 695.729 193.835 696.519 193.024C697.308 192.203 698.263 191.792 699.383 191.792C700.705 191.792 701.713 192.32 702.407 193.376V188.8ZM699.559 198.864C700.369 198.864 701.047 198.592 701.591 198.048C702.135 197.493 702.407 196.811 702.407 196C702.407 195.189 702.135 194.512 701.591 193.968C701.047 193.413 700.369 193.136 699.559 193.136C698.759 193.136 698.087 193.413 697.543 193.968C696.999 194.512 696.727 195.189 696.727 196C696.727 196.811 696.999 197.493 697.543 198.048C698.087 198.592 698.759 198.864 699.559 198.864ZM711.412 194.208C711.412 194.475 711.556 194.688 711.844 194.848C712.142 194.997 712.5 195.131 712.916 195.248C713.342 195.355 713.769 195.483 714.196 195.632C714.622 195.781 714.98 196.037 715.268 196.4C715.566 196.752 715.716 197.2 715.716 197.744C715.716 198.512 715.417 199.115 714.82 199.552C714.233 199.989 713.492 200.208 712.596 200.208C711.806 200.208 711.129 200.043 710.564 199.712C709.998 199.381 709.588 198.923 709.332 198.336L710.82 197.472C711.097 198.24 711.689 198.624 712.596 198.624C713.502 198.624 713.956 198.325 713.956 197.728C713.956 197.472 713.806 197.264 713.508 197.104C713.22 196.944 712.862 196.811 712.436 196.704C712.02 196.587 711.598 196.453 711.172 196.304C710.745 196.155 710.382 195.909 710.084 195.568C709.796 195.216 709.652 194.773 709.652 194.24C709.652 193.504 709.929 192.912 710.484 192.464C711.049 192.016 711.748 191.792 712.58 191.792C713.241 191.792 713.828 191.941 714.34 192.24C714.862 192.528 715.262 192.933 715.54 193.456L714.084 194.272C713.806 193.664 713.305 193.36 712.58 193.36C712.249 193.36 711.972 193.435 711.748 193.584C711.524 193.723 711.412 193.931 711.412 194.208ZM721.349 191.792C722.266 191.792 723.007 192.085 723.573 192.672C724.138 193.259 724.421 194.064 724.421 195.088V200H722.693V195.264C722.693 194.667 722.533 194.208 722.213 193.888C721.893 193.568 721.455 193.408 720.901 193.408C720.293 193.408 719.802 193.6 719.429 193.984C719.055 194.357 718.869 194.933 718.869 195.712V200H717.141V188.8H718.869V193.024C719.391 192.203 720.218 191.792 721.349 191.792ZM732.617 192H734.345V200H732.617V198.848C731.967 199.755 731.033 200.208 729.817 200.208C728.719 200.208 727.78 199.803 727.001 198.992C726.223 198.171 725.833 197.173 725.833 196C725.833 194.816 726.223 193.819 727.001 193.008C727.78 192.197 728.719 191.792 729.817 191.792C731.033 191.792 731.967 192.24 732.617 193.136V192ZM728.281 197.84C728.761 198.32 729.364 198.56 730.089 198.56C730.815 198.56 731.417 198.32 731.897 197.84C732.377 197.349 732.617 196.736 732.617 196C732.617 195.264 732.377 194.656 731.897 194.176C731.417 193.685 730.815 193.44 730.089 193.44C729.364 193.44 728.761 193.685 728.281 194.176C727.801 194.656 727.561 195.264 727.561 196C727.561 196.736 727.801 197.349 728.281 197.84ZM738.088 193.344C738.525 192.352 739.346 191.856 740.552 191.856V193.728C739.89 193.685 739.314 193.845 738.824 194.208C738.333 194.56 738.088 195.147 738.088 195.968V200H736.36V192H738.088V193.344ZM742.813 196.736C742.941 197.344 743.235 197.813 743.693 198.144C744.152 198.464 744.712 198.624 745.373 198.624C746.291 198.624 746.979 198.293 747.437 197.632L748.861 198.464C748.072 199.627 746.904 200.208 745.357 200.208C744.056 200.208 743.005 199.813 742.205 199.024C741.405 198.224 741.005 197.216 741.005 196C741.005 194.805 741.4 193.808 742.189 193.008C742.979 192.197 743.992 191.792 745.229 191.792C746.403 191.792 747.363 192.203 748.109 193.024C748.867 193.845 749.245 194.843 749.245 196.016C749.245 196.197 749.224 196.437 749.181 196.736H742.813ZM742.797 195.328H747.501C747.384 194.677 747.112 194.187 746.685 193.856C746.269 193.525 745.779 193.36 745.213 193.36C744.573 193.36 744.04 193.536 743.613 193.888C743.187 194.24 742.915 194.72 742.797 195.328ZM757.055 192H758.783V200H757.055V198.848C756.404 199.755 755.471 200.208 754.255 200.208C753.156 200.208 752.218 199.803 751.439 198.992C750.66 198.171 750.271 197.173 750.271 196C750.271 194.816 750.66 193.819 751.439 193.008C752.218 192.197 753.156 191.792 754.255 191.792C755.471 191.792 756.404 192.24 757.055 193.136V192ZM752.719 197.84C753.199 198.32 753.802 198.56 754.527 198.56C755.252 198.56 755.855 198.32 756.335 197.84C756.815 197.349 757.055 196.736 757.055 196C757.055 195.264 756.815 194.656 756.335 194.176C755.855 193.685 755.252 193.44 754.527 193.44C753.802 193.44 753.199 193.685 752.719 194.176C752.239 194.656 751.999 195.264 751.999 196C751.999 196.736 752.239 197.349 752.719 197.84ZM765.325 191.792C766.424 191.792 767.362 192.197 768.141 193.008C768.92 193.819 769.309 194.816 769.309 196C769.309 197.173 768.92 198.171 768.141 198.992C767.362 199.803 766.424 200.208 765.325 200.208C764.109 200.208 763.176 199.755 762.525 198.848V200H760.797V188.8H762.525V193.136C763.176 192.24 764.109 191.792 765.325 191.792ZM763.245 197.84C763.725 198.32 764.328 198.56 765.053 198.56C765.778 198.56 766.381 198.32 766.861 197.84C767.341 197.349 767.581 196.736 767.581 196C767.581 195.264 767.341 194.656 766.861 194.176C766.381 193.685 765.778 193.44 765.053 193.44C764.328 193.44 763.725 193.685 763.245 194.176C762.765 194.656 762.525 195.264 762.525 196C762.525 196.736 762.765 197.349 763.245 197.84ZM770.875 200V188.32H772.603V200H770.875ZM775.97 196.736C776.098 197.344 776.391 197.813 776.85 198.144C777.308 198.464 777.868 198.624 778.53 198.624C779.447 198.624 780.135 198.293 780.594 197.632L782.018 198.464C781.228 199.627 780.06 200.208 778.514 200.208C777.212 200.208 776.162 199.813 775.362 199.024C774.562 198.224 774.162 197.216 774.162 196C774.162 194.805 774.556 193.808 775.346 193.008C776.135 192.197 777.148 191.792 778.386 191.792C779.559 191.792 780.519 192.203 781.266 193.024C782.023 193.845 782.402 194.843 782.402 196.016C782.402 196.197 782.38 196.437 782.338 196.736H775.97ZM775.954 195.328H780.658C780.54 194.677 780.268 194.187 779.842 193.856C779.426 193.525 778.935 193.36 778.37 193.36C777.73 193.36 777.196 193.536 776.77 193.888C776.343 194.24 776.071 194.72 775.954 195.328ZM787.922 200V188.32H789.65V200H787.922ZM793.288 190.48C793.075 190.693 792.819 190.8 792.52 190.8C792.222 190.8 791.96 190.693 791.736 190.48C791.523 190.256 791.416 189.995 791.416 189.696C791.416 189.397 791.523 189.141 791.736 188.928C791.95 188.704 792.211 188.592 792.52 188.592C792.83 188.592 793.091 188.704 793.304 188.928C793.518 189.141 793.624 189.397 793.624 189.696C793.624 189.995 793.512 190.256 793.288 190.48ZM791.656 200V192H793.384V200H791.656ZM799.599 191.792C800.516 191.792 801.257 192.085 801.823 192.672C802.388 193.259 802.671 194.064 802.671 195.088V200H800.943V195.264C800.943 194.667 800.783 194.208 800.463 193.888C800.143 193.568 799.705 193.408 799.151 193.408C798.543 193.408 798.052 193.6 797.679 193.984C797.305 194.357 797.119 194.933 797.119 195.712V200H795.391V192H797.119V193.024C797.641 192.203 798.468 191.792 799.599 191.792ZM811.603 200H809.539L806.259 196.304V200H804.531V188.8H806.259V195.536L809.363 192H811.475L807.955 195.92L811.603 200ZM813.755 194.208C813.755 194.475 813.899 194.688 814.187 194.848C814.486 194.997 814.843 195.131 815.259 195.248C815.686 195.355 816.113 195.483 816.539 195.632C816.966 195.781 817.323 196.037 817.611 196.4C817.91 196.752 818.059 197.2 818.059 197.744C818.059 198.512 817.761 199.115 817.163 199.552C816.577 199.989 815.835 200.208 814.939 200.208C814.15 200.208 813.473 200.043 812.907 199.712C812.342 199.381 811.931 198.923 811.675 198.336L813.163 197.472C813.441 198.24 814.033 198.624 814.939 198.624C815.846 198.624 816.299 198.325 816.299 197.728C816.299 197.472 816.15 197.264 815.851 197.104C815.563 196.944 815.206 196.811 814.779 196.704C814.363 196.587 813.942 196.453 813.515 196.304C813.089 196.155 812.726 195.909 812.427 195.568C812.139 195.216 811.995 194.773 811.995 194.24C811.995 193.504 812.273 192.912 812.827 192.464C813.393 192.016 814.091 191.792 814.923 191.792C815.585 191.792 816.171 191.941 816.683 192.24C817.206 192.528 817.606 192.933 817.883 193.456L816.427 194.272C816.15 193.664 815.649 193.36 814.923 193.36C814.593 193.36 814.315 193.435 814.091 193.584C813.867 193.723 813.755 193.931 813.755 194.208ZM833.05 192H834.506L832.026 200H830.602L828.73 194.08L826.858 200H825.434L822.954 192H824.41L826.17 198.08L828.058 192H829.402L831.29 198.096L833.05 192ZM836.643 190.544C836.376 190.544 836.152 190.453 835.971 190.272C835.789 190.091 835.699 189.872 835.699 189.616C835.699 189.36 835.789 189.141 835.971 188.96C836.152 188.768 836.376 188.672 836.643 188.672C836.899 188.672 837.117 188.768 837.299 188.96C837.48 189.141 837.571 189.36 837.571 189.616C837.571 189.872 837.48 190.091 837.299 190.272C837.117 190.453 836.899 190.544 836.643 190.544ZM835.939 200V192H837.331V200H835.939ZM843.806 193.344H841.678V197.68C841.678 198.075 841.753 198.357 841.902 198.528C842.062 198.688 842.302 198.773 842.622 198.784C842.942 198.784 843.337 198.773 843.806 198.752V200C842.59 200.16 841.7 200.064 841.134 199.712C840.569 199.349 840.286 198.672 840.286 197.68V193.344H838.702V192H840.286V190.176L841.678 189.76V192H843.806V193.344ZM849.438 191.792C850.377 191.792 851.129 192.091 851.694 192.688C852.26 193.275 852.542 194.075 852.542 195.088V200H851.15V195.168C851.15 194.517 850.974 194.016 850.622 193.664C850.27 193.301 849.785 193.12 849.166 193.12C848.473 193.12 847.913 193.339 847.486 193.776C847.06 194.203 846.846 194.864 846.846 195.76V200H845.454V188.8H846.846V193.152C847.412 192.245 848.276 191.792 849.438 191.792ZM859.542 190.544C859.275 190.544 859.051 190.453 858.87 190.272C858.688 190.091 858.598 189.872 858.598 189.616C858.598 189.36 858.688 189.141 858.87 188.96C859.051 188.768 859.275 188.672 859.542 188.672C859.798 188.672 860.016 188.768 860.198 188.96C860.379 189.141 860.47 189.36 860.47 189.616C860.47 189.872 860.379 190.091 860.198 190.272C860.016 190.453 859.798 190.544 859.542 190.544ZM858.838 200.48V192H860.23V200.48C860.23 201.515 859.968 202.277 859.446 202.768C858.923 203.269 858.155 203.483 857.142 203.408V202.064C857.728 202.117 858.155 202.021 858.422 201.776C858.699 201.531 858.838 201.099 858.838 200.48ZM867.865 192H869.257V200H867.865V198.848C867.3 199.755 866.436 200.208 865.273 200.208C864.334 200.208 863.582 199.915 863.017 199.328C862.452 198.731 862.169 197.925 862.169 196.912V192H863.561V196.832C863.561 197.483 863.737 197.989 864.089 198.352C864.441 198.704 864.926 198.88 865.545 198.88C866.238 198.88 866.798 198.667 867.225 198.24C867.652 197.803 867.865 197.136 867.865 196.24V192ZM872.561 194.16C872.561 194.469 872.715 194.72 873.025 194.912C873.334 195.093 873.707 195.243 874.145 195.36C874.582 195.467 875.019 195.595 875.457 195.744C875.894 195.883 876.267 196.128 876.577 196.48C876.886 196.821 877.041 197.264 877.041 197.808C877.041 198.533 876.758 199.115 876.193 199.552C875.638 199.989 874.923 200.208 874.049 200.208C873.27 200.208 872.603 200.037 872.049 199.696C871.494 199.355 871.099 198.901 870.865 198.336L872.065 197.648C872.193 198.032 872.433 198.336 872.785 198.56C873.137 198.784 873.558 198.896 874.049 198.896C874.507 198.896 874.886 198.811 875.185 198.64C875.483 198.459 875.633 198.181 875.633 197.808C875.633 197.499 875.478 197.253 875.169 197.072C874.859 196.88 874.486 196.731 874.049 196.624C873.611 196.507 873.174 196.373 872.737 196.224C872.299 196.075 871.926 195.829 871.617 195.488C871.307 195.147 871.153 194.709 871.153 194.176C871.153 193.483 871.419 192.912 871.953 192.464C872.497 192.016 873.174 191.792 873.985 191.792C874.635 191.792 875.211 191.941 875.713 192.24C876.225 192.528 876.609 192.933 876.865 193.456L875.697 194.112C875.409 193.429 874.838 193.088 873.985 193.088C873.59 193.088 873.254 193.184 872.977 193.376C872.699 193.557 872.561 193.819 872.561 194.16ZM882.728 193.344H880.6V197.68C880.6 198.075 880.675 198.357 880.824 198.528C880.984 198.688 881.224 198.773 881.544 198.784C881.864 198.784 882.259 198.773 882.728 198.752V200C881.512 200.16 880.622 200.064 880.056 199.712C879.491 199.349 879.208 198.672 879.208 197.68V193.344H877.624V192H879.208V190.176L880.6 189.76V192H882.728V193.344ZM892.535 189.936C891.127 189.819 890.423 190.427 890.423 191.76V192H892.535V193.344H890.423V200H889.031V193.344H887.751V192H889.031V191.76C889.031 190.683 889.33 189.867 889.927 189.312C890.535 188.757 891.405 188.517 892.535 188.592V189.936ZM894.134 196.64C894.272 197.355 894.598 197.909 895.11 198.304C895.632 198.699 896.272 198.896 897.03 198.896C898.086 198.896 898.854 198.507 899.334 197.728L900.518 198.4C899.739 199.605 898.566 200.208 896.998 200.208C895.728 200.208 894.694 199.813 893.894 199.024C893.104 198.224 892.71 197.216 892.71 196C892.71 194.795 893.099 193.792 893.878 192.992C894.656 192.192 895.664 191.792 896.902 191.792C898.075 191.792 899.03 192.208 899.766 193.04C900.512 193.861 900.886 194.853 900.886 196.016C900.886 196.219 900.87 196.427 900.838 196.64H894.134ZM896.902 193.104C896.155 193.104 895.536 193.317 895.046 193.744C894.555 194.16 894.251 194.72 894.134 195.424H899.478C899.36 194.667 899.062 194.091 898.582 193.696C898.102 193.301 897.542 193.104 896.902 193.104ZM911.597 192H913.053L910.573 200H909.149L907.277 194.08L905.405 200H903.981L901.501 192H902.957L904.717 198.08L906.605 192H907.949L909.837 198.096L911.597 192ZM922.246 200.208C921.04 200.208 920.038 199.808 919.238 199.008C918.438 198.197 918.038 197.195 918.038 196C918.038 194.805 918.438 193.808 919.238 193.008C920.038 192.197 921.04 191.792 922.246 191.792C923.035 191.792 923.744 191.984 924.374 192.368C925.003 192.741 925.472 193.248 925.782 193.888L924.614 194.56C924.411 194.133 924.096 193.792 923.67 193.536C923.254 193.28 922.779 193.152 922.246 193.152C921.446 193.152 920.774 193.424 920.23 193.968C919.696 194.512 919.43 195.189 919.43 196C919.43 196.8 919.696 197.472 920.23 198.016C920.774 198.56 921.446 198.832 922.246 198.832C922.779 198.832 923.259 198.709 923.686 198.464C924.112 198.208 924.438 197.867 924.662 197.44L925.846 198.128C925.504 198.757 925.014 199.264 924.374 199.648C923.734 200.021 923.024 200.208 922.246 200.208ZM927.22 200V188.32H928.612V200H927.22ZM931.44 190.544C931.173 190.544 930.949 190.453 930.768 190.272C930.586 190.091 930.496 189.872 930.496 189.616C930.496 189.36 930.586 189.141 930.768 188.96C930.949 188.768 931.173 188.672 931.44 188.672C931.696 188.672 931.914 188.768 932.096 188.96C932.277 189.141 932.368 189.36 932.368 189.616C932.368 189.872 932.277 190.091 932.096 190.272C931.914 190.453 931.696 190.544 931.44 190.544ZM930.736 200V192H932.128V200H930.736ZM938.011 200.208C936.806 200.208 935.803 199.808 935.003 199.008C934.203 198.197 933.803 197.195 933.803 196C933.803 194.805 934.203 193.808 935.003 193.008C935.803 192.197 936.806 191.792 938.011 191.792C938.801 191.792 939.51 191.984 940.139 192.368C940.769 192.741 941.238 193.248 941.547 193.888L940.379 194.56C940.177 194.133 939.862 193.792 939.435 193.536C939.019 193.28 938.545 193.152 938.011 193.152C937.211 193.152 936.539 193.424 935.995 193.968C935.462 194.512 935.195 195.189 935.195 196C935.195 196.8 935.462 197.472 935.995 198.016C936.539 198.56 937.211 198.832 938.011 198.832C938.545 198.832 939.025 198.709 939.451 198.464C939.878 198.208 940.203 197.867 940.427 197.44L941.611 198.128C941.27 198.757 940.779 199.264 940.139 199.648C939.499 200.021 938.79 200.208 938.011 200.208ZM949.754 200H948.026L944.378 196.208V200H942.986V188.8H944.378V195.536L947.834 192H949.626L945.802 195.872L949.754 200ZM951.639 194.16C951.639 194.469 951.793 194.72 952.103 194.912C952.412 195.093 952.785 195.243 953.223 195.36C953.66 195.467 954.097 195.595 954.535 195.744C954.972 195.883 955.345 196.128 955.655 196.48C955.964 196.821 956.119 197.264 956.119 197.808C956.119 198.533 955.836 199.115 955.271 199.552C954.716 199.989 954.001 200.208 953.127 200.208C952.348 200.208 951.681 200.037 951.127 199.696C950.572 199.355 950.177 198.901 949.943 198.336L951.143 197.648C951.271 198.032 951.511 198.336 951.863 198.56C952.215 198.784 952.636 198.896 953.127 198.896C953.585 198.896 953.964 198.811 954.263 198.64C954.561 198.459 954.711 198.181 954.711 197.808C954.711 197.499 954.556 197.253 954.247 197.072C953.937 196.88 953.564 196.731 953.127 196.624C952.689 196.507 952.252 196.373 951.815 196.224C951.377 196.075 951.004 195.829 950.695 195.488C950.385 195.147 950.231 194.709 950.231 194.176C950.231 193.483 950.497 192.912 951.031 192.464C951.575 192.016 952.252 191.792 953.063 191.792C953.713 191.792 954.289 191.941 954.791 192.24C955.303 192.528 955.687 192.933 955.943 193.456L954.775 194.112C954.487 193.429 953.916 193.088 953.063 193.088C952.668 193.088 952.332 193.184 952.055 193.376C951.777 193.557 951.639 193.819 951.639 194.16ZM958.475 200.176C958.187 200.176 957.942 200.075 957.739 199.872C957.536 199.669 957.435 199.424 957.435 199.136C957.435 198.848 957.536 198.603 957.739 198.4C957.942 198.197 958.187 198.096 958.475 198.096C958.774 198.096 959.019 198.197 959.211 198.4C959.414 198.603 959.515 198.848 959.515 199.136C959.515 199.424 959.414 199.669 959.211 199.872C959.019 200.075 958.774 200.176 958.475 200.176Z" fill="#141414"/>
<rect x="434.25" y="24.25" width="767.5" height="223.5" rx="23.75" stroke="#005AE2" stroke-width="0.5"/>
</g>
<defs>
<filter id="filter0_d_629_764" x="252" y="344" width="964" height="57" filterUnits="userSpaceOnUse" color-interpolation-filters="sRGB">
<feFlood flood-opacity="0" result="BackgroundImageFix"/>
<feColorMatrix in="SourceAlpha" type="matrix" values="0 0 0 0 0 0 0 0 0 0 0 0 0 0 0 0 0 0 127 0" result="hardAlpha"/>
<feOffset dy="4"/>
<feGaussianBlur stdDeviation="2"/>
<feComposite in2="hardAlpha" operator="out"/>
<feColorMatrix type="matrix" values="0 0 0 0 0.0705882 0 0 0 0 0.141176 0 0 0 0 0.34902 0 0 0 0.35 0"/>
<feBlend mode="normal" in2="BackgroundImageFix" result="effect1_dropShadow_629_764"/>
<feBlend mode="normal" in="SourceGraphic" in2="effect1_dropShadow_629_764" result="shape"/>
</filter>
<filter id="filter1_b_629_764" x="222" y="-188" width="1192" height="648" filterUnits="userSpaceOnUse" color-interpolation-filters="sRGB">
<feFlood flood-opacity="0" result="BackgroundImageFix"/>
<feGaussianBlur in="BackgroundImageFix" stdDeviation="106"/>
<feComposite in2="SourceAlpha" operator="in" result="effect1_backgroundBlur_629_764"/>
<feBlend mode="normal" in="SourceGraphic" in2="effect1_backgroundBlur_629_764" result="shape"/>
</filter>
<linearGradient id="paint0_linear_629_764" x1="734" y1="344" x2="734" y2="393" gradientUnits="userSpaceOnUse">
<stop offset="0.106755" stop-color="#E2E9F0"/>
<stop offset="0.440102" stop-color="#DCE4EB"/>
<stop offset="1" stop-color="#E2E9F0" stop-opacity="0"/>
</linearGradient>
</defs>
</svg>
