<svg width="57" height="56" viewBox="0 0 57 56" fill="none" xmlns="http://www.w3.org/2000/svg">
<g clip-path="url(#clip0_618_416)">
<path d="M31.0996 23H34.0996C34.7562 23 35.4064 23.1293 36.013 23.3806C36.6197 23.6319 37.1709 24.0002 37.6351 24.4645C38.0994 24.9288 38.4677 25.48 38.719 26.0866C38.9703 26.6932 39.0996 27.3434 39.0996 28C39.0996 28.6566 38.9703 29.3068 38.719 29.9134C38.4677 30.52 38.0994 31.0712 37.6351 31.5355C37.1709 31.9998 36.6197 32.3681 36.013 32.6194C35.4064 32.8707 34.7562 33 34.0996 33H31.0996M25.0996 33H22.0996C21.443 33 20.7928 32.8707 20.1862 32.6194C19.5796 32.3681 19.0284 31.9998 18.5641 31.5355C17.6264 30.5979 17.0996 29.3261 17.0996 28C17.0996 26.6739 17.6264 25.4021 18.5641 24.4645C19.5018 23.5268 20.7735 23 22.0996 23H25.0996" stroke="#141414" stroke-width="2" stroke-linecap="round" stroke-linejoin="round"/>
<path d="M24.0996 28H32.0996" stroke="#005AE2" stroke-width="2" stroke-linecap="round" stroke-linejoin="round"/>
</g>
<circle cx="28.0996" cy="28" r="28" fill="#3284FF" fill-opacity="0.13"/>
<defs>
<clipPath id="clip0_618_416">
<rect width="24" height="24" fill="white" transform="translate(16.0996 16)"/>
</clipPath>
</defs>
</svg>
