<svg width="57" height="56" viewBox="0 0 57 56" fill="none" xmlns="http://www.w3.org/2000/svg">
<path d="M27.0996 20H20.0996C19.5692 20 19.0605 20.2107 18.6854 20.5858C18.3103 20.9609 18.0996 21.4696 18.0996 22V36C18.0996 36.5304 18.3103 37.0391 18.6854 37.4142C19.0605 37.7893 19.5692 38 20.0996 38H34.0996C34.63 38 35.1387 37.7893 35.5138 37.4142C35.8889 37.0391 36.0996 36.5304 36.0996 36V29" stroke="black" stroke-width="2" stroke-linecap="round" stroke-linejoin="round"/>
<path d="M34.5996 18.5002C34.9974 18.1024 35.537 17.8789 36.0996 17.8789C36.6622 17.8789 37.2018 18.1024 37.5996 18.5002C37.9974 18.8981 38.2209 19.4376 38.2209 20.0002C38.2209 20.5628 37.9974 21.1024 37.5996 21.5002L28.0996 31.0002L24.0996 32.0002L25.0996 28.0002L34.5996 18.5002Z" stroke="#005AE2" stroke-width="2" stroke-linecap="round" stroke-linejoin="round"/>
<circle cx="28.0996" cy="28" r="28" fill="#3284FF" fill-opacity="0.13"/>
</svg>
